Coordinates
version=1
nRows=34
nColumns=19
inDegrees=yes

Units are S.I. units (second, meters, Newtons, ...)
If the header above contains a line with 'inDegrees', this indicates whether rotational values are in degrees (yes) or radians (no).

endheader
time	pelvis_tilt	pelvis_list	pelvis_rotation	pelvis_tx	pelvis_ty	pelvis_tz	hip_flexion_r	hip_adduction_r	hip_rotation_r	knee_angle_r	knee_angle_r_beta	ankle_angle_r	hip_flexion_l	hip_adduction_l	hip_rotation_l	knee_angle_l	knee_angle_l_beta	ankle_angle_l
     13.14666667	     -3.97858361	      2.70419452	      3.26332938	      1.91890658	      1.00787536	      0.98274964	    -15.24423102	     -6.35834026	    -19.59336699	     39.56381212	      0.69051879	    -18.49136565	     23.84150035	      4.42984937	    -15.08814980	     14.93326751	      0.26063469	    -10.78842075
     13.15333333	     -3.32432614	      3.07845254	      3.36864958	      1.91897858	      1.00484403	      0.98146261	    -15.03177057	     -7.46556482	    -19.96333046	     43.24459650	      0.75476059	    -18.09520511	     22.78851312	      4.86265327	    -15.72929606	     15.83476102	      0.27636872	    -10.02104694
     13.16000000	     -2.68921781	      3.55117040	      3.48911629	      1.91888191	      1.00132563	      0.98018029	    -14.70759389	     -8.74709605	    -20.36611051	     47.05705900	      0.82130062	    -17.66720615	     21.70309374	      5.42548133	    -16.07048508	     16.88026731	      0.29461624	     -8.84647964
     13.16666667	     -2.09339235	      4.11134676	      3.61253100	      1.91853757	      0.99732435	      0.97891106	    -14.24270014	    -10.20464129	    -20.78649614	     50.99016167	      0.88994621	    -17.22280778	     20.62678961	      6.10312497	    -16.17573494	     18.03351893	      0.31474428	     -7.34628161
     13.17333333	     -1.51750801	      4.79800161	      3.79001621	      1.91793165	      0.99288343	      0.97760197	    -13.69470256	    -11.82620185	    -21.18908026	     54.98827165	      0.95972639	    -16.71064244	     19.57717872	      6.94767310	    -16.04030722	     19.32215192	      0.33723517	     -5.50119972
     13.18000000	     -0.97166642	      5.53404389	      3.99815618	      1.91703869	      0.98816240	      0.97634208	    -13.03483777	    -13.52166584	    -21.51745763	     59.00873873	      1.02989678	    -16.10108713	     18.55222481	      7.87364568	    -15.72576460	     20.66527091	      0.36067702	     -3.32312668
     13.18666667	     -0.63673654	      6.41440958	      4.18278549	      1.91586331	      0.98292548	      0.97506507	    -12.02675018	    -15.43102093	    -21.66084455	     63.11657011	      1.10159196	    -15.41474848	     17.79660581	      8.94961544	    -15.45247371	     22.11354731	      0.38595421	     -1.08870410
     13.19333333	     -0.29359171	      7.32542339	      4.43375028	      1.91436881	      0.97760565	      0.97383300	    -10.96027986	    -17.28929819	    -21.61963030	     67.13363729	      1.17170301	    -14.57986669	     17.09083846	     10.06557521	    -15.08329257	     23.67405737	      0.41319025	      1.40247624
     13.20000000	      0.16760379	      8.25078228	      4.73929398	      1.91265744	      0.97243441	      0.97264883	     -9.98180996	    -19.07148248	    -21.45091264	     70.99869907	      1.23916106	    -13.61914111	     16.31288893	     11.17235358	    -14.70147382	     25.35354922	      0.44250291	      4.02810749
     13.20666667	      0.14309029	      9.26864675	      4.91652211	      1.91069454	      0.96685811	      0.97164480	     -8.21192402	    -20.96591497	    -20.76883414	     74.91254812	      1.30747062	    -12.57162278	     16.07534690	     12.35951184	    -14.50962036	     26.96311614	      0.47059515	      6.46011465
     13.21333333	      0.23162763	     10.19290020	      5.11703772	      1.90853535	      0.96162334	      0.97077219	     -6.46427269	    -22.62283631	    -19.87886731	     78.60979281	      1.37199971	    -11.42566303	     15.78057281	     13.39368293	    -14.33420576	     28.67773265	      0.50052086	      8.86984553
     13.22000000	      0.56768476	     11.10950132	      5.35999235	      1.90626646	      0.95695574	      0.96998904	     -4.97805380	    -24.17557097	    -18.98838743	     82.04898353	      1.43202491	    -10.16580781	     15.20334482	     14.38126185	    -14.10133980	     30.36551489	      0.52997821	     11.13362675
     13.22666667	      0.18145640	     11.89071853	      5.35988530	      1.90379882	      0.95203751	      0.96958830	     -2.18093149	    -25.41805743	    -17.12853012	     85.45255925	      1.49142851	     -9.01178216	     15.43600635	     15.19696251	    -14.11175665	     31.92669421	      0.55722593	     13.09351286
     13.23333333	      0.05087291	     12.64372207	      5.37753286	      1.90131016	      0.94784897	      0.96932238	      0.35857659	    -26.50273584	    -15.28915117	     88.54349668	      1.54537555	     -7.80633905	     15.31875705	     15.95614511	    -14.00845176	     33.35085165	      0.58208217	     14.82222581
     13.24000000	     -0.17781544	     13.23808217	      5.29257928	      1.89872572	      0.94410511	      0.96930267	      3.22954539	    -27.23231740	    -13.11880766	     91.38608387	      1.59498805	     -6.65933043	     15.26865058	     16.51799256	    -13.91665008	     34.62765896	      0.60436666	     16.32036585
     13.24666667	     -0.46857734	     13.65728854	      5.11119107	      1.89608570	      0.94087769	      0.96954943	      6.34990185	    -27.56229924	    -10.70528849	     93.95578916	      1.63983787	     -5.60332826	     15.22666196	     16.86619050	    -13.82592539	     35.74484353	      0.62386521	     17.56062140
     13.25333333	      0.08913021	     13.82581377	      5.36327517	      1.89348412	      0.93961383	      0.96945840	      8.01803336	    -27.54297778	     -9.31315250	     95.88533746	      1.67351484	     -4.74578149	     14.00192806	     17.08790364	    -12.78489490	     36.57574788	      0.63836723	     18.49062090
     13.26000000	     -1.06404319	     14.10160590	      4.38827869	      1.89075792	      0.93628559	      0.97085004	     12.94044677	    -27.15791932	     -5.45831192	     98.14685479	      1.71298577	     -3.87830796	     14.85490918	     17.07628435	    -13.70958403	     37.25334237	      0.65019348	     19.36413010
     13.26666667	     -1.41807104	     13.99402642	      4.00015535	      1.88811816	      0.93486762	      0.97175223	     16.24900856	    -26.30519272	     -2.98908898	     99.71664794	      1.74038383	     -3.23494407	     14.57557568	     16.84125417	    -13.53940275	     37.72990943	      0.65851115	     20.04984877
     13.27333333	     -1.76804551	     13.81917042	      3.45028956	      1.88545954	      0.93402522	      0.97291096	     19.56102949	    -25.20669626	     -0.52638815	    100.95287820	      1.76196011	     -2.81999618	     14.17785578	     16.50428089	    -13.50655780	     37.92963184	      0.66199696	     20.50126645
     13.28000000	     -2.04599022	     13.47137886	      2.93874893	      1.88300566	      0.93394064	      0.97410498	     22.56556709	    -23.82560489	      1.57286657	    101.77906819	      1.77637985	     -2.53167950	     13.53642803	     16.01443319	    -13.38920249	     37.87526993	      0.66104817	     20.84302389
     13.28666667	     -2.41061485	     13.03335891	      2.44551966	      1.88063975	      0.93427856	      0.97534501	     25.49290277	    -22.32047638	      3.37135152	    102.25321219	      1.78465522	     -2.34666018	     12.87819422	     15.45325171	    -13.25903975	     37.61895032	      0.65657454	     21.02810719
     13.29333333	     -2.64806594	     12.48492699	      1.96149095	      1.87846611	      0.93535107	      0.97660162	     28.04486622	    -20.69803570	      4.80116549	    102.32620881	      1.78592925	     -2.25985072	     11.94462235	     14.78861711	    -13.12016635	     37.13482823	      0.64812502	     21.05727974
     13.30000000	     -2.75505656	     11.81867788	      1.49545167	      1.87656712	      0.93714236	      0.97783557	     30.19361940	    -19.00663281	      5.84260488	    101.99938014	      1.78022502	     -2.24909617	     10.74233890	     14.02191279	    -12.97499509	     36.43471416	      0.63590572	     20.92225547
     13.30666667	     -2.95792649	     11.16935408	      1.43794190	      1.87500046	      0.93942593	      0.97850361	     32.07700099	    -17.70226842	      6.21559076	    101.28600620	      1.76777429	     -2.08806589	      9.46534981	     13.42734085	    -12.29721685	     35.48768103	      0.61937688	     20.62271421
     13.31333333	     -3.03451964	     10.24230020	      0.82228152	      1.87358250	      0.94219032	      0.97990375	     33.83271561	    -15.74484204	      6.81449076	    100.25521898	      1.74978366	     -2.32783032	      8.08614714	     12.34226487	    -12.52245558	     34.48897323	      0.60194614	     20.04842628
     13.32000000	     -3.27845474	      9.36898554	      0.61878276	      1.87258589	      0.94525362	      0.98074766	     35.41382544	    -14.22921843	      6.82510972	     98.87393094	      1.72567564	     -2.29618153	      6.73508215	     11.45267053	    -12.24161821	     33.27580473	      0.58077235	     19.30157862
     13.32666667	     -3.30823989	      8.39039050	      0.43138109	      1.87198319	      0.94894980	      0.98149044	     36.51368520	    -12.78672145	      6.49526571	     97.15182036	      1.69561914	     -2.12620957	      5.06991285	     10.46363296	    -11.97750136	     31.90018534	      0.55676327	     18.33966065
     13.33333333	     -3.96483525	      7.52520414	      0.49004732	      1.87173044	      0.95210930	      0.98190396	     38.14050435	    -11.69632051	      5.92336618	     95.21722735	      1.66185412	     -1.88016615	      4.05426917	      9.62673004	    -11.57268106	     30.47226075	      0.53184128	     17.11427215
     13.34000000	     -3.67721972	      6.35143528	      0.47673038	      1.87190308	      0.95697327	      0.98227444	     38.39773902	    -10.45903788	      4.91431943	     92.80501068	      1.61975300	     -1.71206185	      1.90331307	      8.46349967	    -11.16172251	     28.77405243	      0.50220195	     15.57625663
     13.34666667	     -4.56690988	      5.49933954	      0.59799967	      1.87246250	      0.96014394	      0.98251447	     39.93117189	     -9.69791507	      3.94007679	     90.36849959	      1.57722786	     -1.28506692	      1.11100718	      7.60144347	    -10.94426574	     27.24860019	      0.47557779	     13.86293828
     13.35333333	     -4.09878863	      4.25939910	      0.90695147	      1.87339850	      0.96571983	      0.98233446	     39.53018994	     -8.90340758	      2.23503032	     87.38414167	      1.52514099	     -0.94321230	     -1.34699307	      6.41030606	    -10.13576326	     25.21081324	      0.44001170	     11.69032651
     13.36000000	     -4.37441882	      3.17240573	      1.18890571	      1.87463857	      0.97014724	      0.98221423	     39.90291707	     -8.29998995	      0.56531411	     84.31900378	      1.47164424	     -0.54166053	     -2.87127984	      5.30549288	     -9.67783806	     23.39696396	      0.40835406	      9.37447500
     13.36666667	     -4.80270780	      2.10404798	      1.46509130	      1.87613630	      0.97436876	      0.98209480	     40.30280355	     -7.78221382	     -1.22831571	     81.05772702	      1.41472422	     -0.21531895	     -4.18738691	      4.20300155	     -9.28692672	     21.59128300	      0.37683898	      6.88744917
